<svg width="190" height="48" viewBox="0 0 190 48" fill="none" xmlns="http://www.w3.org/2000/svg">
<g filter="url(#filter0_d_144_1584)">
<path d="M4.95166 1.14551H18.6567L22.5725 5.45281H9.25896V25.0315H28.8376V12.8927L33.1449 17.2V29.3388H4.95166V1.14551Z" fill="#232323" stroke="#111111" stroke-width="0.156629"/>
<path d="M27.663 4.66967L16.3074 16.4169L18.2652 18.3747L30.0124 6.62753V9.76012L33.145 12.8927V1.14551H22.181L25.3136 4.66967H27.663Z" fill="#E43625"/>
<path d="M40.1225 22.9766V7.09598H45.5537C46.8877 7.09598 48.0381 7.31478 49.0051 7.75238C49.9791 8.18292 50.7272 8.8005 51.2495 9.60511C51.7718 10.4027 52.033 11.3555 52.033 12.4636C52.033 13.5717 51.7718 14.5316 51.2495 15.3433C50.7272 16.1479 49.9826 16.769 49.0156 17.2066C48.0558 17.6442 46.9124 17.863 45.5854 17.863H43.3833V22.9766H40.1225ZM43.3833 15.0045H45.2467C46.3548 15.0045 47.2053 14.7857 47.7981 14.3481C48.3981 13.9035 48.698 13.2753 48.698 12.4636C48.698 11.6661 48.3981 11.0485 47.7981 10.6109C47.2053 10.1662 46.3548 9.9439 45.2467 9.9439H43.3833V15.0045ZM57.3688 22.9766H54.3304V12.3895H56.9771L57.083 14.2211C57.4359 13.5788 57.9158 13.0777 58.5228 12.7177C59.1298 12.3577 59.825 12.1778 60.6085 12.1778C60.8343 12.1778 61.0602 12.1954 61.286 12.2307C61.519 12.2589 61.7554 12.3048 61.9954 12.3683L61.6142 15.0998C61.1484 14.9657 60.7073 14.8986 60.2909 14.8986C59.705 14.8986 59.1898 15.0327 58.7452 15.3009C58.3076 15.5621 57.9688 15.9291 57.7288 16.402C57.4888 16.8678 57.3688 17.4148 57.3688 18.043V22.9766ZM73.1435 21.7908C71.8308 22.7225 70.3944 23.1883 68.8346 23.1883C67.6771 23.1883 66.636 22.9413 65.7114 22.4472C64.7939 21.9461 64.0669 21.2685 63.5305 20.4145C63.0011 19.5605 62.7365 18.5971 62.7365 17.5242C62.7365 16.5008 62.9764 15.5868 63.4564 14.7822C63.9434 13.9776 64.6033 13.3423 65.4362 12.8765C66.269 12.4107 67.2148 12.1778 68.2735 12.1778C69.3675 12.1778 70.3309 12.4354 71.1638 12.9506C71.9966 13.4588 72.646 14.1717 73.1118 15.0892C73.5776 15.9997 73.8105 17.0549 73.8105 18.2547V18.5935H66.0079C66.1349 19.0099 66.3431 19.377 66.6325 19.6946C66.9219 20.0051 67.2818 20.2522 67.7124 20.4357C68.1429 20.6192 68.637 20.7109 69.1946 20.7109C70.2745 20.7109 71.2802 20.3616 72.2119 19.6628L73.1435 21.7908ZM65.8702 17.0478H71.005C70.9485 16.589 70.8038 16.1867 70.5709 15.8409C70.345 15.488 70.0451 15.2127 69.671 15.0151C69.304 14.8175 68.8911 14.7187 68.4323 14.7187C67.9665 14.7187 67.5501 14.821 67.183 15.0257C66.8231 15.2304 66.5302 15.5056 66.3043 15.8515C66.0785 16.1973 65.9338 16.5961 65.8702 17.0478ZM92.9625 22.9766H89.924V17.6619C89.924 16.7796 89.7511 16.0985 89.4053 15.6186C89.0594 15.1386 88.5689 14.8986 87.9337 14.8986C87.2843 14.8986 86.7761 15.1421 86.4091 15.6291C86.0492 16.1162 85.8692 16.7937 85.8692 17.6619V22.9766H82.8307V17.6619C82.8307 16.7796 82.6578 16.0985 82.3119 15.6186C81.9661 15.1386 81.472 14.8986 80.8297 14.8986C80.1875 14.8986 79.6828 15.1421 79.3158 15.6291C78.9558 16.1162 78.7759 16.7937 78.7759 17.6619V22.9766H75.7374V12.3895H78.1618L78.2677 14.1364C78.6206 13.4941 79.0935 13.0071 79.6863 12.6754C80.2863 12.3436 80.9815 12.1778 81.772 12.1778C82.5978 12.1778 83.3106 12.3507 83.9106 12.6965C84.5105 13.0424 84.9728 13.54 85.2975 14.1893C85.6574 13.5329 86.1339 13.0353 86.7267 12.6965C87.3267 12.3507 88.036 12.1778 88.8547 12.1778C90.1464 12.1778 91.1521 12.5907 91.872 13.4165C92.599 14.2352 92.9625 15.3821 92.9625 16.8572V22.9766ZM96.8797 9.8592C96.4774 9.8592 96.1386 9.71804 95.8634 9.43572C95.5881 9.1534 95.4505 8.81108 95.4505 8.40877C95.4505 8.00647 95.5881 7.66768 95.8634 7.39242C96.1386 7.1101 96.4774 6.96893 96.8797 6.96893C97.2891 6.96893 97.6314 7.1101 97.9067 7.39242C98.189 7.66768 98.3302 8.00647 98.3302 8.40877C98.3302 8.81108 98.189 9.1534 97.9067 9.43572C97.6314 9.71804 97.2891 9.8592 96.8797 9.8592ZM98.4043 22.9766H95.3658V12.3895H98.4043V22.9766ZM111.373 22.9766H108.907L108.801 21.2826C108.427 21.9037 107.929 22.3766 107.308 22.7013C106.694 23.026 105.974 23.1883 105.148 23.1883C103.793 23.1883 102.731 22.7719 101.962 21.939C101.192 21.1062 100.808 19.9628 100.808 18.5088V12.3895H103.846V17.8101C103.846 18.6359 104.04 19.2852 104.428 19.7581C104.824 20.2239 105.36 20.4568 106.038 20.4568C106.743 20.4568 107.301 20.2133 107.71 19.7263C108.127 19.2323 108.335 18.5653 108.335 17.7254V12.3895H111.373V22.9766ZM131.182 22.9766H128.143V17.6619C128.143 16.7796 127.97 16.0985 127.625 15.6186C127.279 15.1386 126.788 14.8986 126.153 14.8986C125.504 14.8986 124.995 15.1421 124.628 15.6291C124.268 16.1162 124.088 16.7937 124.088 17.6619V22.9766H121.05V17.6619C121.05 16.7796 120.877 16.0985 120.531 15.6186C120.185 15.1386 119.691 14.8986 119.049 14.8986C118.407 14.8986 117.902 15.1421 117.535 15.6291C117.175 16.1162 116.995 16.7937 116.995 17.6619V22.9766H113.957V12.3895H116.381L116.487 14.1364C116.84 13.4941 117.313 13.0071 117.906 12.6754C118.506 12.3436 119.201 12.1778 119.991 12.1778C120.817 12.1778 121.53 12.3507 122.13 12.6965C122.73 13.0424 123.192 13.54 123.517 14.1893C123.877 13.5329 124.353 13.0353 124.946 12.6965C125.546 12.3507 126.255 12.1778 127.074 12.1778C128.366 12.1778 129.371 12.5907 130.091 13.4165C130.818 14.2352 131.182 15.3821 131.182 16.8572V22.9766Z" fill="#232323"/>
<path d="M140.424 22.9766H137.163V9.9439H132.484V7.09598H145.114V9.9439H140.424V22.9766ZM149.667 22.9766H146.628V12.3895H149.275L149.381 14.2211C149.734 13.5788 150.214 13.0777 150.821 12.7177C151.428 12.3577 152.123 12.1778 152.906 12.1778C153.132 12.1778 153.358 12.1954 153.584 12.2307C153.817 12.2589 154.053 12.3048 154.293 12.3683L153.912 15.0998C153.446 14.9657 153.005 14.8986 152.589 14.8986C152.003 14.8986 151.488 15.0327 151.043 15.3009C150.606 15.5621 150.267 15.9291 150.027 16.402C149.787 16.8678 149.667 17.4148 149.667 18.043V22.9766ZM166.045 22.9766H163.578L163.472 21.2826C163.098 21.9037 162.601 22.3766 161.98 22.7013C161.365 23.026 160.646 23.1883 159.82 23.1883C158.465 23.1883 157.402 22.7719 156.633 21.939C155.864 21.1062 155.479 19.9628 155.479 18.5088V12.3895H158.518V17.8101C158.518 18.6359 158.712 19.2852 159.1 19.7581C159.495 20.2239 160.032 20.4568 160.709 20.4568C161.415 20.4568 161.972 20.2133 162.382 19.7263C162.798 19.2323 163.006 18.5653 163.006 17.7254V12.3895H166.045V22.9766ZM167.887 22.0661L168.554 19.4828C168.766 19.7157 169.048 19.931 169.401 20.1286C169.761 20.3263 170.146 20.4851 170.555 20.6051C170.971 20.718 171.363 20.7745 171.73 20.7745C172.168 20.7745 172.51 20.6933 172.757 20.531C173.004 20.3616 173.128 20.1357 173.128 19.8534C173.128 19.6205 173.043 19.4264 172.874 19.2711C172.711 19.1088 172.489 18.9676 172.207 18.8476C171.931 18.7206 171.624 18.5971 171.286 18.4771C170.827 18.3006 170.354 18.0959 169.867 17.863C169.387 17.6301 168.981 17.3125 168.649 16.9102C168.318 16.5079 168.152 15.975 168.152 15.3115C168.152 14.6763 168.318 14.1258 168.649 13.66C168.981 13.1871 169.45 12.8236 170.057 12.5695C170.664 12.3083 171.37 12.1778 172.175 12.1778C173.481 12.1778 174.783 12.506 176.081 13.1624L175.224 15.5656C174.998 15.3892 174.716 15.2268 174.377 15.0786C174.038 14.9233 173.689 14.7998 173.329 14.7081C172.976 14.6163 172.658 14.5704 172.376 14.5704C172.03 14.5704 171.758 14.641 171.561 14.7822C171.37 14.9233 171.275 15.1174 171.275 15.3645C171.275 15.548 171.342 15.7138 171.476 15.8621C171.61 16.0032 171.808 16.1409 172.069 16.275C172.337 16.402 172.665 16.5396 173.054 16.6879C173.534 16.8643 174.017 17.076 174.504 17.3231C174.998 17.563 175.411 17.8877 175.743 18.2971C176.081 18.6994 176.251 19.2358 176.251 19.9063C176.251 20.5627 176.071 21.1379 175.711 21.632C175.358 22.1261 174.857 22.5107 174.208 22.786C173.565 23.0542 172.81 23.1883 171.942 23.1883C170.495 23.1883 169.143 22.8142 167.887 22.0661ZM185.388 22.7013C184.576 23.026 183.789 23.1883 183.027 23.1883C182.236 23.1883 181.537 23.0224 180.93 22.6907C180.33 22.3519 179.861 21.8826 179.522 21.2826C179.183 20.6756 179.014 19.9769 179.014 19.1864V15.0998H177.161V12.3895H179.173V9.74274H182.053V12.3895H184.985V15.0998H182.053V18.6359C182.053 19.2146 182.211 19.6663 182.529 19.991C182.847 20.3086 183.242 20.4674 183.715 20.4674C184.145 20.4674 184.565 20.3333 184.975 20.0651L185.388 22.7013Z" fill="#E43625"/>
<path d="M43.9929 38.8857V26.4575H48.5914C49.9281 26.4575 50.9638 26.7419 51.6984 27.3109C52.4386 27.8743 52.8087 28.6669 52.8087 29.6888C52.8087 30.313 52.6623 30.8654 52.3696 31.3459C52.0768 31.821 51.6819 32.1828 51.1847 32.4313C51.8918 32.6412 52.4414 33.003 52.8335 33.5167C53.2312 34.0249 53.4301 34.6491 53.4301 35.3893C53.4301 36.0963 53.2561 36.7122 52.9081 37.2369C52.5656 37.7561 52.0796 38.1621 51.4499 38.4549C50.8257 38.7421 50.091 38.8857 49.2459 38.8857H43.9929ZM46.5448 31.6608H48.4505C49.0194 31.6608 49.4696 31.5254 49.801 31.2548C50.1325 30.9841 50.2982 30.6168 50.2982 30.1528C50.2982 29.6999 50.1297 29.3436 49.7928 29.084C49.4613 28.8188 49.0001 28.6863 48.4091 28.6863H46.5448V31.6608ZM46.5448 36.6569H48.6079C49.0609 36.6569 49.453 36.5934 49.7845 36.4664C50.1159 36.3338 50.37 36.1488 50.5467 35.9112C50.729 35.6682 50.8202 35.3865 50.8202 35.0661C50.8202 34.7457 50.7373 34.4723 50.5716 34.2459C50.4114 34.0194 50.1767 33.8481 49.8673 33.7321C49.558 33.6106 49.1907 33.5499 48.7653 33.5499H46.5448V36.6569ZM62.3702 38.8857H60.2988L60.1745 37.8998C59.8707 38.2643 59.4951 38.5488 59.0477 38.7532C58.6003 38.952 58.1087 39.0515 57.5729 39.0515C56.9929 39.0515 56.4764 38.941 56.0235 38.72C55.5705 38.4936 55.2142 38.1842 54.9546 37.7921C54.695 37.3943 54.5652 36.9442 54.5652 36.4415C54.5652 35.9112 54.7061 35.4445 54.9878 35.0413C55.2695 34.638 55.6561 34.3232 56.1477 34.0967C56.6449 33.8647 57.2083 33.7487 57.838 33.7487C58.2081 33.7487 58.5782 33.7901 58.9483 33.873C59.3239 33.9559 59.6719 34.0719 59.9922 34.221V34.0056C59.9922 33.6741 59.8983 33.3897 59.7105 33.1522C59.5282 32.9091 59.2742 32.7213 58.9483 32.5887C58.6279 32.4562 58.2688 32.3899 57.8711 32.3899C57.49 32.3899 57.1116 32.4507 56.736 32.5722C56.3659 32.6937 56.0235 32.876 55.7086 33.119L55.0623 31.3045C55.6202 31.0173 56.1837 30.8018 56.7526 30.6582C57.3271 30.5091 57.8822 30.4345 58.418 30.4345C59.2244 30.4345 59.9232 30.5947 60.5142 30.9151C61.1053 31.2299 61.561 31.6773 61.8813 32.2573C62.2072 32.8318 62.3702 33.514 62.3702 34.3038V38.8857ZM58.0948 37.2204C58.4097 37.2204 58.7107 37.1513 58.998 37.0132C59.2852 36.8751 59.5172 36.6873 59.694 36.4498C59.8762 36.2123 59.9729 35.9499 59.9839 35.6627V35.6047C59.7409 35.439 59.4702 35.3119 59.172 35.2235C58.8792 35.1296 58.5809 35.0827 58.2771 35.0827C57.8242 35.0827 57.4541 35.1821 57.1669 35.381C56.8796 35.5798 56.736 35.8367 56.736 36.1515C56.736 36.3559 56.794 36.5409 56.91 36.7067C57.0315 36.8668 57.1945 36.9939 57.3989 37.0878C57.6032 37.1762 57.8352 37.2204 58.0948 37.2204ZM72.4951 38.8857H70.1171V34.6436C70.1171 33.9973 69.9625 33.4919 69.6531 33.1273C69.3493 32.7572 68.9323 32.5722 68.402 32.5722C67.8497 32.5722 67.4105 32.7655 67.0846 33.1522C66.7643 33.5333 66.6041 34.0525 66.6041 34.7098V38.8857H64.2261V30.6002H66.1484L66.2312 31.9259C66.5295 31.4398 66.9189 31.0697 67.3995 30.8156C67.88 30.5616 68.4462 30.4345 69.098 30.4345C70.153 30.4345 70.9816 30.7604 71.5837 31.4122C72.1913 32.0585 72.4951 32.9533 72.4951 34.0967V38.8857ZM76.729 38.8857H74.351V26.4575H76.729V34.0967L77.541 33.119L79.9272 30.6002H82.9017L79.3969 34.2873L83.316 38.8857H80.242L77.7647 35.7787L76.729 36.7232V38.8857Z" fill="#232323"/>
</g>
<defs>
<filter id="filter0_d_144_1584" x="0.00878906" y="0.203125" width="189.379" height="47.5938" filterUnits="userSpaceOnUse" color-interpolation-filters="sRGB">
<feFlood flood-opacity="0" result="BackgroundImageFix"/>
<feColorMatrix in="SourceAlpha" type="matrix" values="0 0 0 0 0 0 0 0 0 0 0 0 0 0 0 0 0 0 127 0" result="hardAlpha"/>
<feOffset dy="4"/>
<feGaussianBlur stdDeviation="2"/>
<feComposite in2="hardAlpha" operator="out"/>
<feColorMatrix type="matrix" values="0 0 0 0 0 0 0 0 0 0 0 0 0 0 0 0 0 0 0.25 0"/>
<feBlend mode="normal" in2="BackgroundImageFix" result="effect1_dropShadow_144_1584"/>
<feBlend mode="normal" in="SourceGraphic" in2="effect1_dropShadow_144_1584" result="shape"/>
</filter>
</defs>
</svg>
