<svg width="24" height="25" viewBox="0 0 24 25" fill="none" xmlns="http://www.w3.org/2000/svg">
<path d="M14.6167 20.1906C14.9133 20.4321 14.9603 20.8713 14.7217 21.1715C14.5453 21.3935 14.3415 21.5922 14.1255 21.755C13.3979 22.326 12.4728 22.5849 11.5541 22.4754C10.6346 22.3659 9.79579 21.8962 9.22338 21.1689C8.98619 20.8676 9.03525 20.4286 9.33296 20.1885C9.63068 19.9484 10.0643 19.9981 10.3015 20.2995C10.6467 20.7381 11.1555 21.023 11.7152 21.0896C12.2757 21.1564 12.8395 20.9986 13.2913 20.6443C13.4246 20.5437 13.5443 20.427 13.6477 20.2969C13.8863 19.9967 14.3202 19.9491 14.6167 20.1906ZM5.16091 9.49974L5.17323 8.90391C5.18203 8.64906 5.19565 8.41248 5.21564 8.18096C5.51533 4.94456 8.60444 2.5 11.9736 2.5H12.0449C15.4122 2.5 18.5022 4.94285 18.8122 8.18536C18.8299 8.39148 18.8376 8.57458 18.8399 8.83206L18.8408 9.61982C18.8415 9.69158 18.8427 9.75469 18.8446 9.81353L18.8538 10.0098L18.8984 10.1969C19.0391 10.718 19.2864 11.2052 19.625 11.6282L19.7757 11.8055L19.8374 11.8847C20.2436 12.4917 20.4756 13.198 20.5088 13.9587L20.5078 14.362C20.4795 15.263 20.1487 16.1331 19.5426 16.8582C18.7399 17.7101 17.6522 18.2393 16.4961 18.3457C13.5108 18.6699 10.4988 18.6699 7.52175 18.3466C6.35775 18.2346 5.27323 17.7069 4.43542 16.8223C3.81761 16.0691 3.4892 15.1208 3.50969 14.1624L3.51054 13.9242C3.54623 13.1955 3.77683 12.4898 4.17815 11.8802L4.24532 11.7938C4.71404 11.2799 5.03448 10.651 5.17352 9.97306L5.15848 10.034L5.16091 9.49974ZM12.0449 3.89535H11.9736C9.2753 3.89535 6.81682 5.84087 6.58846 8.30678C6.57677 8.44228 6.56745 8.58207 6.56016 8.7292L6.54411 9.19559L6.53758 10.1149L6.5232 10.2567C6.33323 11.183 5.89607 12.0409 5.25808 12.7404L5.30735 12.6833L5.21924 12.8291C5.05417 13.1265 4.94769 13.4495 4.90561 13.7682L4.88814 13.9587L4.88798 14.1774C4.87447 14.8142 5.08965 15.4356 5.46248 15.8931C6.0376 16.4985 6.81561 16.877 7.66047 16.9583C10.5481 17.2719 13.4615 17.2719 16.3601 16.9572C17.1959 16.8802 17.9733 16.502 18.5172 15.9267C18.9287 15.433 19.1463 14.8097 19.1303 14.1536L19.1312 13.9901C19.11 13.5186 18.9598 13.0613 18.6961 12.6672L18.7114 12.6926L18.5735 12.5309C18.0981 11.9441 17.7528 11.2635 17.5605 10.534L17.4956 10.2582L17.4827 10.1655C17.473 10.0301 17.4673 9.90982 17.4643 9.76514L17.4616 8.8605C17.4597 8.63044 17.4535 8.47558 17.4395 8.31326C17.2032 5.84075 14.7424 3.89535 12.0449 3.89535Z" fill="#FF0000"/>
</svg>
