<svg width="25" height="25" viewBox="0 0 25 25" fill="none" xmlns="http://www.w3.org/2000/svg">
<path d="M18.0614 22.5H16.1005C15.7736 22.5 15.4603 22.3705 15.2299 22.1402C14.9996 21.9099 14.8715 21.5978 14.8738 21.2733L18.0614 22.5ZM18.0614 22.5C18.9772 22.5023 19.8563 22.1428 20.5047 21.5008C21.1532 20.8588 21.5176 19.987 21.5176 19.0778V10.3669C21.5176 9.63246 21.1896 8.93584 20.6222 8.46467L18.0614 22.5ZM15.7238 21.2796H15.7238V21.2733V18.2156C15.7238 17.6133 15.4828 17.037 15.0557 16.613C14.6288 16.1893 14.0512 15.9523 13.4502 15.9523H10.576C9.32616 15.9523 8.30236 16.9598 8.30236 18.2156V20.6593L8.27997 20.6667L8.27552 21.276C8.27405 21.4772 8.10759 21.65 7.88987 21.65H5.97375C4.52855 21.65 3.36758 20.4886 3.36758 19.0689V10.3779C3.38167 9.89316 3.61354 9.43797 4.00295 9.13832L4.00941 9.13335L4.01577 9.12826L10.5341 3.91057L10.5459 3.90116L10.5573 3.89134C11.373 3.18956 12.5798 3.16768 13.421 3.83989L13.4235 3.84192L20.0858 9.12416C20.4557 9.43456 20.6676 9.88939 20.6676 10.3669V19.0778C20.6676 19.7592 20.3945 20.4137 19.9067 20.8968C19.4186 21.3801 18.7556 21.6518 18.0636 21.65H18.0614H16.1005C15.9981 21.65 15.9012 21.6094 15.831 21.5391C15.761 21.4691 15.7231 21.3756 15.7238 21.2796Z" stroke="#666666" stroke-width="1.7"/>
</svg>
