<svg width="16" height="17" viewBox="0 0 16 17" fill="none" xmlns="http://www.w3.org/2000/svg">
<path d="M7.86159 16.1363C5.68107 16.1363 3.83413 15.3797 2.32079 13.8667C0.807452 12.3537 0.0507812 10.5071 0.0507812 8.32705C0.0507812 6.14697 0.807452 4.29989 2.32079 2.78581C3.83413 1.2717 5.68107 0.514648 7.86159 0.514648C9.07929 0.514648 10.2315 0.785363 11.3184 1.32679C12.4052 1.86821 13.3091 2.63227 14.0301 3.61899V0.514648H15.5923V6.88342H9.22349V5.32131H13.3372C12.7884 4.31592 12.0274 3.52381 11.054 2.94499C10.0807 2.36619 9.01652 2.07679 7.86159 2.07679C6.12585 2.07679 4.65047 2.6843 3.43545 3.89932C2.22043 5.11434 1.61292 6.58972 1.61292 8.32546C1.61292 10.0612 2.22043 11.5366 3.43545 12.7516C4.65047 13.9666 6.12585 14.5741 7.86159 14.5741C9.19811 14.5741 10.4045 14.1923 11.4806 13.4285C12.5568 12.6648 13.3118 11.6581 13.7458 10.4084H15.392C14.9193 12.108 13.9884 13.4876 12.5991 14.5471C11.2099 15.6065 9.6307 16.1363 7.86159 16.1363Z" fill="#707070" fill-opacity="0.7"/>
</svg>
