<svg width="15" height="14" viewBox="0 0 15 14" fill="none" xmlns="http://www.w3.org/2000/svg">
<path d="M6.79297 13.4219C7.05729 13.4219 7.27604 13.3353 7.44922 13.1621C7.6224 12.9889 7.70898 12.7725 7.70898 12.5127V10.0449H7.87988C8.71842 10.0449 9.45443 10.1338 10.0879 10.3115C10.7214 10.4893 11.2751 10.7786 11.749 11.1797C12.2275 11.5807 12.6468 12.1185 13.0068 12.793C13.1436 13.0391 13.2917 13.2008 13.4512 13.2783C13.6152 13.3558 13.7861 13.3945 13.9639 13.3945C14.2008 13.3945 14.3991 13.2852 14.5586 13.0664C14.7227 12.8522 14.8047 12.5332 14.8047 12.1094C14.8047 10.8698 14.6657 9.75781 14.3877 8.77344C14.1097 7.78451 13.6859 6.94141 13.1162 6.24414C12.5511 5.54688 11.8333 5.01595 10.9629 4.65137C10.0924 4.28223 9.06478 4.09766 7.87988 4.09766H7.70898V1.65039C7.70898 1.39062 7.6224 1.1696 7.44922 0.987305C7.27604 0.800456 7.05273 0.707031 6.7793 0.707031C6.59701 0.707031 6.43294 0.748047 6.28711 0.830078C6.14128 0.907552 5.97038 1.03971 5.77441 1.22656L0.360352 6.27148C0.223633 6.39453 0.12793 6.52669 0.0732422 6.66797C0.0185547 6.80469 -0.00878906 6.93685 -0.00878906 7.06445C-0.00878906 7.1875 0.0185547 7.31966 0.0732422 7.46094C0.12793 7.60221 0.223633 7.73438 0.360352 7.85742L5.77441 12.9434C5.95215 13.112 6.11849 13.2327 6.27344 13.3057C6.43294 13.3831 6.60612 13.4219 6.79297 13.4219Z" fill="#F8FAFC"/>
</svg>
