<svg width="23" height="18" viewBox="0 0 23 18" fill="none" xmlns="http://www.w3.org/2000/svg">
<path d="M11.9465 11.4595L12.2513 11.461C16.3742 11.4997 18.7172 12.3407 18.7172 14.6671C18.7172 16.9388 16.4776 17.8087 12.5485 17.8863L11.9465 17.8921C7.63389 17.8921 5.17582 17.0678 5.17582 14.6846C5.17582 12.2986 7.64376 11.4595 11.9465 11.4595ZM11.9465 12.9595C8.45978 12.9595 6.67582 13.5661 6.67582 14.6846C6.67582 15.7952 8.4558 16.3921 11.9465 16.3921C15.4321 16.3921 17.2172 15.7851 17.2172 14.6671C17.2172 13.5566 15.4366 12.9595 11.9465 12.9595ZM18.9894 10.8365C19.5112 10.8725 20.0244 10.9466 20.5046 11.055C21.5736 11.2643 22.377 11.6651 22.7501 12.447C23.0248 13.0247 23.0248 13.6964 22.7501 14.2756C22.3795 15.0546 21.5897 15.4499 20.5115 15.6716C20.1058 15.7551 19.7093 15.4938 19.6258 15.0881C19.5424 14.6823 19.8037 14.2858 20.2094 14.2024C20.8617 14.0682 21.2895 13.8541 21.3952 13.632C21.4765 13.4606 21.4765 13.2615 21.3959 13.0921C21.2889 12.8678 20.8575 12.6525 20.1958 12.5227C19.7703 12.4269 19.3327 12.3638 18.8862 12.333C18.473 12.3045 18.1611 11.9464 18.1896 11.5331C18.2181 11.1199 18.5762 10.808 18.9894 10.8365ZM5.71273 11.5331C5.74123 11.9464 5.42934 12.3045 5.01611 12.333C4.68122 12.3561 4.35135 12.3974 4.01917 12.4588L3.68594 12.527C3.04506 12.6525 2.6141 12.8676 2.50711 13.0925C2.42606 13.2621 2.42606 13.46 2.50812 13.6321C2.61344 13.8543 3.04082 14.0683 3.69291 14.2024C4.09863 14.2858 4.3599 14.6823 4.27647 15.0881C4.19304 15.4938 3.7965 15.7551 3.39078 15.6716C2.31213 15.4498 1.52236 15.0544 1.15343 14.2762C0.877289 13.697 0.877289 13.0241 1.15314 12.4469C1.50016 11.7174 2.22311 11.3195 3.17073 11.103L3.37717 11.0593C3.87795 10.9466 4.39112 10.8725 4.91291 10.8365C5.32614 10.808 5.68423 11.1199 5.71273 11.5331ZM11.9465 0.9375C14.502 0.9375 16.5547 2.9902 16.5547 5.54575C16.5547 8.10205 14.5022 10.1549 11.9465 10.1549C9.39077 10.1549 7.33823 8.10205 7.33823 5.54575C7.33823 2.9902 9.39094 0.9375 11.9465 0.9375ZM17.6036 1.87937C19.6203 1.87937 21.2558 3.51418 21.2558 5.53062C21.2558 7.54707 19.6203 9.18188 17.6036 9.18188C17.1894 9.18188 16.8536 8.84609 16.8536 8.43188C16.8536 8.01766 17.1894 7.68188 17.6036 7.68188C18.792 7.68188 19.7558 6.7185 19.7558 5.53062C19.7558 4.34275 18.792 3.37937 17.6036 3.37937C17.1894 3.37937 16.8536 3.04359 16.8536 2.62937C16.8536 2.21516 17.1894 1.87937 17.6036 1.87937ZM6.29872 1.87937C6.71293 1.87937 7.04872 2.21516 7.04872 2.62937C7.04872 3.04359 6.71293 3.37937 6.29872 3.37937C5.11035 3.37937 4.14655 4.34275 4.14655 5.53062C4.14655 6.7185 5.11035 7.68188 6.29872 7.68188C6.71293 7.68188 7.04872 8.01766 7.04872 8.43188C7.04872 8.84609 6.71293 9.18188 6.29872 9.18188C4.28207 9.18188 2.64655 7.54707 2.64655 5.53062C2.64655 3.51418 4.28207 1.87937 6.29872 1.87937ZM11.9465 2.4375C10.2194 2.4375 8.83823 3.81863 8.83823 5.54575C8.83823 7.27367 10.2193 8.65492 11.9465 8.65492C13.6737 8.65492 15.0547 7.27367 15.0547 5.54575C15.0547 3.81863 13.6736 2.4375 11.9465 2.4375Z" fill="#FF0000"/>
</svg>
