<svg width="18" height="19" viewBox="0 0 18 19" fill="none" xmlns="http://www.w3.org/2000/svg">
<path d="M15.2609 14.6756C15.5254 14.6756 15.7398 14.8858 15.7398 15.1451C15.7398 15.3828 15.5596 15.5792 15.3259 15.6103L15.2609 15.6146H10.264C9.99947 15.6146 9.78503 15.4044 9.78503 15.1451C9.78503 14.9074 9.96522 14.711 10.199 14.6799L10.264 14.6756H15.2609ZM10.4009 3.91714C11.3077 3.02827 12.7785 3.02827 13.6852 3.91714L14.6266 4.83993C15.5334 5.7288 15.5334 7.17052 14.6266 8.0594L7.55088 14.9954C7.14628 15.392 6.59772 15.6145 6.02516 15.6145H3.12739C2.8582 15.6145 2.64188 15.3971 2.64859 15.1333L2.72148 12.2672C2.73597 11.7254 2.9621 11.209 3.35295 10.8259L10.4009 3.91714ZM9.85307 5.78076L4.03029 11.4898C3.81303 11.7028 3.68712 11.9904 3.67907 12.2912L3.61826 14.6752L6.02516 14.6755C6.30837 14.6755 6.58073 14.5778 6.7957 14.4013L6.87354 14.3314L12.7252 8.59541L9.85307 5.78076ZM13.0079 4.58111C12.4752 4.05893 11.6109 4.05893 11.0782 4.58111L10.5309 5.11674L13.4023 7.93139L13.9493 7.39543C14.4524 6.90227 14.4803 6.1192 14.0331 5.59382L13.9493 5.50389L13.0079 4.58111Z" fill="#666666" fill-opacity="0.3"/>
</svg>
