<svg width="24" height="25" viewBox="0 0 24 25" fill="none" xmlns="http://www.w3.org/2000/svg">
<g clip-path="url(#clip0_144_1567)">
<path d="M11.9465 14.4595L12.2514 14.461C16.3743 14.4997 18.7172 15.3407 18.7172 17.6671C18.7172 19.9388 16.4776 20.8087 12.5485 20.8863L11.9465 20.8921C7.63395 20.8921 5.17588 20.0678 5.17588 17.6846C5.17588 15.2986 7.64382 14.4595 11.9465 14.4595ZM11.9465 15.9595C8.45984 15.9595 6.67588 16.5661 6.67588 17.6846C6.67588 18.7952 8.45586 19.3921 11.9465 19.3921C15.4322 19.3921 17.2172 18.7851 17.2172 17.6671C17.2172 16.5566 15.4367 15.9595 11.9465 15.9595ZM18.9895 13.8365C19.5113 13.8725 20.0244 13.9466 20.5046 14.055C21.5736 14.2643 22.377 14.6651 22.7502 15.447C23.0249 16.0247 23.0249 16.6964 22.7502 17.2756C22.3796 18.0546 21.5898 18.4499 20.5116 18.6716C20.1059 18.7551 19.7093 18.4938 19.6259 18.0881C19.5425 17.6823 19.8037 17.2858 20.2095 17.2024C20.8618 17.0682 21.2896 16.8541 21.3952 16.632C21.4765 16.4606 21.4765 16.2615 21.396 16.0921C21.2889 15.8678 20.8575 15.6525 20.1959 15.5227C19.7704 15.4269 19.3328 15.3638 18.8863 15.333C18.473 15.3045 18.1611 14.9464 18.1896 14.5331C18.2181 14.1199 18.5762 13.808 18.9895 13.8365ZM5.71279 14.5331C5.74129 14.9464 5.4294 15.3045 5.01617 15.333C4.68128 15.3561 4.35141 15.3974 4.01923 15.4588L3.686 15.527C3.04512 15.6525 2.61416 15.8676 2.50717 16.0925C2.42612 16.2621 2.42612 16.46 2.50818 16.6321C2.61351 16.8543 3.04088 17.0683 3.69297 17.2024C4.09869 17.2858 4.35996 17.6823 4.27653 18.0881C4.1931 18.4938 3.79656 18.7551 3.39084 18.6716C2.31219 18.4498 1.52242 18.0544 1.1535 17.2762C0.87735 16.697 0.87735 16.0241 1.1532 15.4469C1.50022 14.7174 2.22317 14.3195 3.17079 14.103L3.37724 14.0593C3.87801 13.9466 4.39118 13.8725 4.91297 13.8365C5.3262 13.808 5.68429 14.1199 5.71279 14.5331ZM11.9465 3.9375C14.5021 3.9375 16.5548 5.9902 16.5548 8.54575C16.5548 11.102 14.5023 13.1549 11.9465 13.1549C9.39083 13.1549 7.3383 11.102 7.3383 8.54575C7.3383 5.9902 9.391 3.9375 11.9465 3.9375ZM17.6037 4.87937C19.6203 4.87937 21.2558 6.51418 21.2558 8.53062C21.2558 10.5471 19.6203 12.1819 17.6037 12.1819C17.1894 12.1819 16.8537 11.8461 16.8537 11.4319C16.8537 11.0177 17.1894 10.6819 17.6037 10.6819C18.792 10.6819 19.7558 9.7185 19.7558 8.53062C19.7558 7.34275 18.792 6.37937 17.6037 6.37937C17.1894 6.37937 16.8537 6.04359 16.8537 5.62937C16.8537 5.21516 17.1894 4.87937 17.6037 4.87937ZM6.29878 4.87937C6.71299 4.87937 7.04878 5.21516 7.04878 5.62937C7.04878 6.04359 6.71299 6.37937 6.29878 6.37937C5.11041 6.37937 4.14661 7.34275 4.14661 8.53062C4.14661 9.7185 5.11041 10.6819 6.29878 10.6819C6.71299 10.6819 7.04878 11.0177 7.04878 11.4319C7.04878 11.8461 6.71299 12.1819 6.29878 12.1819C4.28213 12.1819 2.64661 10.5471 2.64661 8.53062C2.64661 6.51418 4.28213 4.87937 6.29878 4.87937ZM11.9465 5.4375C10.2194 5.4375 8.8383 6.81863 8.8383 8.54575C8.8383 10.2737 10.2193 11.6549 11.9465 11.6549C13.6738 11.6549 15.0548 10.2737 15.0548 8.54575C15.0548 6.81863 13.6737 5.4375 11.9465 5.4375Z" fill="#666666"/>
</g>
<defs>
<clipPath id="clip0_144_1567">
<rect width="24" height="24" fill="white" transform="translate(0.00878906 0.5)"/>
</clipPath>
</defs>
</svg>
