<svg width="20" height="21" viewBox="0 0 20 21" fill="none" xmlns="http://www.w3.org/2000/svg">
<path d="M16.0526 20.5H14.0917C13.7648 20.5 13.4515 20.3705 13.2212 20.1402C12.9909 19.9099 12.8627 19.5978 12.8651 19.2733L16.0526 20.5ZM16.0526 20.5C16.9684 20.5023 17.8475 20.1428 18.496 19.5008C19.1444 18.8588 19.5088 17.987 19.5088 17.0778V8.36686C19.5088 7.63246 19.1809 6.93584 18.6134 6.46467L16.0526 20.5ZM13.715 19.2796H13.7151V19.2733V16.2156C13.7151 15.6133 13.474 15.037 13.0469 14.613C12.6201 14.1893 12.0424 13.9523 11.4414 13.9523H8.56722C7.31737 13.9523 6.29357 14.9598 6.29357 16.2156V18.6593L6.27118 18.6667L6.26673 19.276C6.26526 19.4772 6.0988 19.65 5.88108 19.65H3.96496C2.51976 19.65 1.35879 18.4886 1.35879 17.0689V8.37791C1.37288 7.89316 1.60475 7.43797 1.99416 7.13832L2.00062 7.13335L2.00698 7.12826L8.52536 1.91057L8.53711 1.90116L8.54853 1.89134C9.36425 1.18956 10.571 1.16768 11.4122 1.83989L11.4147 1.84192L18.077 7.12416C18.4469 7.43456 18.6588 7.88939 18.6588 8.36686V17.0778C18.6588 17.7592 18.3858 18.4137 17.8979 18.8968C17.4098 19.3801 16.7468 19.6518 16.0548 19.65H16.0526H14.0917C13.9893 19.65 13.8924 19.6094 13.8222 19.5391C13.7522 19.4691 13.7143 19.3756 13.715 19.2796Z" stroke="#797979" stroke-width="1.7"/>
</svg>
