<svg width="22" height="17" viewBox="0 0 22 17" fill="none" xmlns="http://www.w3.org/2000/svg">
<path d="M13.4229 9.64266L13.4229 9.64263L13.8248 9.26276L20.0085 15.1031V15.3184C20.0085 15.5196 19.8551 15.6729 19.6539 15.6729H2.38122C2.18002 15.6729 2.02667 15.5196 2.02667 15.3184V15.1031L8.20956 9.2627L8.61227 9.64266C8.61228 9.64267 8.61229 9.64268 8.6123 9.64269C9.13958 10.1407 9.83776 10.4184 10.563 10.4184H11.4721C12.1974 10.4184 12.8956 10.1406 13.4229 9.64266ZM2.38122 0.218359C1.57826 0.218359 0.917578 0.879039 0.917578 1.682V15.3184C0.917578 16.1213 1.57826 16.782 2.38122 16.782H19.6539C20.4569 16.782 21.1176 16.1213 21.1176 15.3184V1.682C21.1176 0.879039 20.4569 0.218359 19.6539 0.218359H2.38122ZM2.38122 1.32745H19.6539C19.8551 1.32745 20.0085 1.4808 20.0085 1.682V1.89724L12.6614 8.83675C12.3399 9.14047 11.9146 9.30927 11.4721 9.30927H10.563C10.1206 9.30927 9.69529 9.14047 9.3737 8.83675L2.02667 1.89724V1.682C2.02667 1.4808 2.18002 1.32745 2.38122 1.32745ZM2.02667 13.5771V3.42322L7.40247 8.50018L2.02667 13.5771ZM14.6327 8.50018L20.0085 3.42322V13.5771L14.6327 8.50018Z" fill="#E43625" stroke="#E43625" stroke-width="0.2"/>
</svg>
