<svg width="22" height="17" viewBox="0 0 22 17" fill="none" xmlns="http://www.w3.org/2000/svg">
<path d="M13.4209 9.64266L13.421 9.64263L13.8228 9.26276L20.0065 15.1031V15.3184C20.0065 15.5196 19.8532 15.6729 19.652 15.6729H2.37926C2.17807 15.6729 2.02472 15.5196 2.02472 15.3184V15.1031L8.2076 9.2627L8.61031 9.64266C8.61033 9.64267 8.61034 9.64268 8.61035 9.64269C9.13763 10.1407 9.8358 10.4184 10.5611 10.4184H11.4702C12.1955 10.4184 12.8937 10.1406 13.4209 9.64266ZM2.37926 0.218359C1.5763 0.218359 0.915625 0.879039 0.915625 1.682V15.3184C0.915625 16.1213 1.5763 16.782 2.37926 16.782H19.652C20.4549 16.782 21.1156 16.1213 21.1156 15.3184V1.682C21.1156 0.879039 20.4549 0.218359 19.652 0.218359H2.37926ZM2.37926 1.32745H19.652C19.8532 1.32745 20.0065 1.4808 20.0065 1.682V1.89724L12.6595 8.83675C12.3379 9.14047 11.9126 9.30927 11.4702 9.30927H10.5611C10.1186 9.30927 9.69334 9.14047 9.37175 8.83675L2.02472 1.89724V1.682C2.02472 1.4808 2.17806 1.32745 2.37926 1.32745ZM2.02472 13.5771V3.42322L7.40052 8.50018L2.02472 13.5771ZM14.6307 8.50018L20.0065 3.42322V13.5771L14.6307 8.50018Z" fill="#666666" stroke="#666666" stroke-width="0.2"/>
</svg>
