<svg width="22" height="22" viewBox="0 0 22 22" fill="none" xmlns="http://www.w3.org/2000/svg">
<mask id="path-1-outside-1_334_104" maskUnits="userSpaceOnUse" x="-0.0947266" y="0" width="22" height="22" fill="black">
<rect fill="white" x="-0.0947266" width="22" height="22"/>
<path d="M19.9088 4.33333H14.2421V2C14.2421 1.73478 14.1367 1.48043 13.9492 1.29289C13.7617 1.10536 13.5073 1 13.2421 1H1.90875C1.64353 1 1.38918 1.10536 1.20164 1.29289C1.01411 1.48043 0.90875 1.73478 0.90875 2V10C0.90875 10.2652 1.01411 10.5196 1.20164 10.7071C1.38918 10.8946 1.64353 11 1.90875 11H2.57542V13.03C2.57733 13.0524 2.58045 13.0746 2.58475 13.0967C2.05285 13.2522 1.59362 13.5919 1.28917 14.055C0.984728 14.5181 0.854912 15.0744 0.922934 15.6244C0.990957 16.1744 1.25238 16.6822 1.66048 17.0572C2.06857 17.4321 2.59672 17.6497 3.1505 17.671C3.70428 17.6923 4.24758 17.516 4.68328 17.1735C5.11898 16.831 5.41866 16.3447 5.52875 15.8016C5.63883 15.2584 5.55215 14.6938 5.28418 14.2087C5.01622 13.7236 4.58446 13.3497 4.06608 13.1537L6.69442 11H7.57542V13.3333C7.57542 13.5985 7.68077 13.8529 7.86831 14.0404C8.05585 14.228 8.3102 14.3333 8.57542 14.3333H15.1231L17.7514 16.4863C17.234 16.6823 16.8031 17.0558 16.5357 17.5402C16.2683 18.0247 16.182 18.5884 16.292 19.1306C16.402 19.6729 16.7013 20.1583 17.1364 20.5002C17.5714 20.8421 18.1138 21.0181 18.6667 20.9969C19.2196 20.9756 19.7469 20.7584 20.1544 20.3841C20.5619 20.0098 20.823 19.5028 20.8911 18.9537C20.9591 18.4046 20.8297 17.8492 20.5259 17.3867C20.2221 16.9243 19.7637 16.5849 19.2327 16.4293C19.237 16.4073 19.2402 16.385 19.2421 16.3627V14.3333H19.9088C20.174 14.3333 20.4283 14.228 20.6159 14.0404C20.8034 13.8529 20.9088 13.5985 20.9088 13.3333V5.33333C20.9088 5.06812 20.8034 4.81376 20.6159 4.62623C20.4283 4.43869 20.174 4.33333 19.9088 4.33333ZM4.90875 15.3333C4.90875 15.663 4.811 15.9852 4.62787 16.2593C4.44473 16.5334 4.18443 16.747 3.87989 16.8731C3.57535 16.9993 3.24023 17.0323 2.91693 16.968C2.59363 16.9037 2.29666 16.7449 2.06357 16.5118C1.83048 16.2788 1.67175 15.9818 1.60744 15.6585C1.54313 15.3352 1.57614 15.0001 1.70228 14.6955C1.82843 14.391 2.04205 14.1307 2.31613 13.9475C2.59021 13.7644 2.91245 13.6667 3.24208 13.6667C3.68395 13.6672 4.10756 13.843 4.42001 14.1554C4.73246 14.4679 4.90822 14.8915 4.90875 15.3333ZM6.57542 10.3333C6.49834 10.3334 6.42366 10.3601 6.36408 10.409L3.24208 12.9667V10.6667C3.24208 10.5783 3.20696 10.4935 3.14445 10.431C3.08194 10.3685 2.99716 10.3333 2.90875 10.3333H1.90875C1.82034 10.3333 1.73556 10.2982 1.67305 10.2357C1.61054 10.1732 1.57542 10.0884 1.57542 10V2C1.57542 1.91159 1.61054 1.82681 1.67305 1.7643C1.73556 1.70179 1.82034 1.66667 1.90875 1.66667H13.2421C13.3305 1.66667 13.4153 1.70179 13.4778 1.7643C13.5403 1.82681 13.5754 1.91159 13.5754 2V4.33333H8.57542C8.43557 4.33377 8.29739 4.36368 8.16989 4.42112C8.04238 4.47855 7.92841 4.56222 7.83542 4.66667H7.24208C7.15368 4.66667 7.06889 4.70179 7.00638 4.7643C6.94387 4.82681 6.90875 4.91159 6.90875 5C6.90875 5.08841 6.94387 5.17319 7.00638 5.2357C7.06889 5.29821 7.15368 5.33333 7.24208 5.33333H7.57542V6.33333H2.90875C2.82034 6.33333 2.73556 6.36845 2.67305 6.43096C2.61054 6.49348 2.57542 6.57826 2.57542 6.66667C2.57542 6.75507 2.61054 6.83986 2.67305 6.90237C2.73556 6.96488 2.82034 7 2.90875 7H7.57542V8H2.90875C2.82034 8 2.73556 8.03512 2.67305 8.09763C2.61054 8.16014 2.57542 8.24493 2.57542 8.33333C2.57542 8.42174 2.61054 8.50652 2.67305 8.56904C2.73556 8.63155 2.82034 8.66667 2.90875 8.66667H7.57542V10.3333H6.57542ZM20.2421 18.6667C20.2421 18.9963 20.1443 19.3185 19.9612 19.5926C19.7781 19.8667 19.5178 20.0803 19.2132 20.2065C18.9087 20.3326 18.5736 20.3656 18.2503 20.3013C17.927 20.237 17.63 20.0783 17.3969 19.8452C17.1638 19.6121 17.0051 19.3151 16.9408 18.9918C16.8765 18.6685 16.9095 18.3334 17.0356 18.0289C17.1618 17.7243 17.3754 17.464 17.6495 17.2809C17.9235 17.0977 18.2458 17 18.5754 17C19.0173 17.0005 19.4409 17.1763 19.7533 17.4887C20.0658 17.8012 20.2416 18.2248 20.2421 18.6667ZM20.2421 13.3333C20.2421 13.4217 20.207 13.5065 20.1445 13.569C20.0819 13.6315 19.9972 13.6667 19.9088 13.6667H18.9088C18.8203 13.6667 18.7356 13.7018 18.673 13.7643C18.6105 13.8268 18.5754 13.9116 18.5754 14V16.3L15.4534 13.7427C15.3939 13.6937 15.3192 13.6668 15.2421 13.6667H8.57542C8.48701 13.6667 8.40223 13.6315 8.33971 13.569C8.2772 13.5065 8.24208 13.4217 8.24208 13.3333V5.33333C8.24208 5.24493 8.2772 5.16014 8.33971 5.09763C8.40223 5.03512 8.48701 5 8.57542 5H19.9088C19.9972 5 20.0819 5.03512 20.1445 5.09763C20.207 5.16014 20.2421 5.24493 20.2421 5.33333V13.3333Z"/>
</mask>
<path d="M19.9088 4.33333H14.2421V2C14.2421 1.73478 14.1367 1.48043 13.9492 1.29289C13.7617 1.10536 13.5073 1 13.2421 1H1.90875C1.64353 1 1.38918 1.10536 1.20164 1.29289C1.01411 1.48043 0.90875 1.73478 0.90875 2V10C0.90875 10.2652 1.01411 10.5196 1.20164 10.7071C1.38918 10.8946 1.64353 11 1.90875 11H2.57542V13.03C2.57733 13.0524 2.58045 13.0746 2.58475 13.0967C2.05285 13.2522 1.59362 13.5919 1.28917 14.055C0.984728 14.5181 0.854912 15.0744 0.922934 15.6244C0.990957 16.1744 1.25238 16.6822 1.66048 17.0572C2.06857 17.4321 2.59672 17.6497 3.1505 17.671C3.70428 17.6923 4.24758 17.516 4.68328 17.1735C5.11898 16.831 5.41866 16.3447 5.52875 15.8016C5.63883 15.2584 5.55215 14.6938 5.28418 14.2087C5.01622 13.7236 4.58446 13.3497 4.06608 13.1537L6.69442 11H7.57542V13.3333C7.57542 13.5985 7.68077 13.8529 7.86831 14.0404C8.05585 14.228 8.3102 14.3333 8.57542 14.3333H15.1231L17.7514 16.4863C17.234 16.6823 16.8031 17.0558 16.5357 17.5402C16.2683 18.0247 16.182 18.5884 16.292 19.1306C16.402 19.6729 16.7013 20.1583 17.1364 20.5002C17.5714 20.8421 18.1138 21.0181 18.6667 20.9969C19.2196 20.9756 19.7469 20.7584 20.1544 20.3841C20.5619 20.0098 20.823 19.5028 20.8911 18.9537C20.9591 18.4046 20.8297 17.8492 20.5259 17.3867C20.2221 16.9243 19.7637 16.5849 19.2327 16.4293C19.237 16.4073 19.2402 16.385 19.2421 16.3627V14.3333H19.9088C20.174 14.3333 20.4283 14.228 20.6159 14.0404C20.8034 13.8529 20.9088 13.5985 20.9088 13.3333V5.33333C20.9088 5.06812 20.8034 4.81376 20.6159 4.62623C20.4283 4.43869 20.174 4.33333 19.9088 4.33333ZM4.90875 15.3333C4.90875 15.663 4.811 15.9852 4.62787 16.2593C4.44473 16.5334 4.18443 16.747 3.87989 16.8731C3.57535 16.9993 3.24023 17.0323 2.91693 16.968C2.59363 16.9037 2.29666 16.7449 2.06357 16.5118C1.83048 16.2788 1.67175 15.9818 1.60744 15.6585C1.54313 15.3352 1.57614 15.0001 1.70228 14.6955C1.82843 14.391 2.04205 14.1307 2.31613 13.9475C2.59021 13.7644 2.91245 13.6667 3.24208 13.6667C3.68395 13.6672 4.10756 13.843 4.42001 14.1554C4.73246 14.4679 4.90822 14.8915 4.90875 15.3333ZM6.57542 10.3333C6.49834 10.3334 6.42366 10.3601 6.36408 10.409L3.24208 12.9667V10.6667C3.24208 10.5783 3.20696 10.4935 3.14445 10.431C3.08194 10.3685 2.99716 10.3333 2.90875 10.3333H1.90875C1.82034 10.3333 1.73556 10.2982 1.67305 10.2357C1.61054 10.1732 1.57542 10.0884 1.57542 10V2C1.57542 1.91159 1.61054 1.82681 1.67305 1.7643C1.73556 1.70179 1.82034 1.66667 1.90875 1.66667H13.2421C13.3305 1.66667 13.4153 1.70179 13.4778 1.7643C13.5403 1.82681 13.5754 1.91159 13.5754 2V4.33333H8.57542C8.43557 4.33377 8.29739 4.36368 8.16989 4.42112C8.04238 4.47855 7.92841 4.56222 7.83542 4.66667H7.24208C7.15368 4.66667 7.06889 4.70179 7.00638 4.7643C6.94387 4.82681 6.90875 4.91159 6.90875 5C6.90875 5.08841 6.94387 5.17319 7.00638 5.2357C7.06889 5.29821 7.15368 5.33333 7.24208 5.33333H7.57542V6.33333H2.90875C2.82034 6.33333 2.73556 6.36845 2.67305 6.43096C2.61054 6.49348 2.57542 6.57826 2.57542 6.66667C2.57542 6.75507 2.61054 6.83986 2.67305 6.90237C2.73556 6.96488 2.82034 7 2.90875 7H7.57542V8H2.90875C2.82034 8 2.73556 8.03512 2.67305 8.09763C2.61054 8.16014 2.57542 8.24493 2.57542 8.33333C2.57542 8.42174 2.61054 8.50652 2.67305 8.56904C2.73556 8.63155 2.82034 8.66667 2.90875 8.66667H7.57542V10.3333H6.57542ZM20.2421 18.6667C20.2421 18.9963 20.1443 19.3185 19.9612 19.5926C19.7781 19.8667 19.5178 20.0803 19.2132 20.2065C18.9087 20.3326 18.5736 20.3656 18.2503 20.3013C17.927 20.237 17.63 20.0783 17.3969 19.8452C17.1638 19.6121 17.0051 19.3151 16.9408 18.9918C16.8765 18.6685 16.9095 18.3334 17.0356 18.0289C17.1618 17.7243 17.3754 17.464 17.6495 17.2809C17.9235 17.0977 18.2458 17 18.5754 17C19.0173 17.0005 19.4409 17.1763 19.7533 17.4887C20.0658 17.8012 20.2416 18.2248 20.2421 18.6667ZM20.2421 13.3333C20.2421 13.4217 20.207 13.5065 20.1445 13.569C20.0819 13.6315 19.9972 13.6667 19.9088 13.6667H18.9088C18.8203 13.6667 18.7356 13.7018 18.673 13.7643C18.6105 13.8268 18.5754 13.9116 18.5754 14V16.3L15.4534 13.7427C15.3939 13.6937 15.3192 13.6668 15.2421 13.6667H8.57542C8.48701 13.6667 8.40223 13.6315 8.33971 13.569C8.2772 13.5065 8.24208 13.4217 8.24208 13.3333V5.33333C8.24208 5.24493 8.2772 5.16014 8.33971 5.09763C8.40223 5.03512 8.48701 5 8.57542 5H19.9088C19.9972 5 20.0819 5.03512 20.1445 5.09763C20.207 5.16014 20.2421 5.24493 20.2421 5.33333V13.3333Z" fill="#E43625"/>
<path d="M19.9088 4.33333H14.2421V2C14.2421 1.73478 14.1367 1.48043 13.9492 1.29289C13.7617 1.10536 13.5073 1 13.2421 1H1.90875C1.64353 1 1.38918 1.10536 1.20164 1.29289C1.01411 1.48043 0.90875 1.73478 0.90875 2V10C0.90875 10.2652 1.01411 10.5196 1.20164 10.7071C1.38918 10.8946 1.64353 11 1.90875 11H2.57542V13.03C2.57733 13.0524 2.58045 13.0746 2.58475 13.0967C2.05285 13.2522 1.59362 13.5919 1.28917 14.055C0.984728 14.5181 0.854912 15.0744 0.922934 15.6244C0.990957 16.1744 1.25238 16.6822 1.66048 17.0572C2.06857 17.4321 2.59672 17.6497 3.1505 17.671C3.70428 17.6923 4.24758 17.516 4.68328 17.1735C5.11898 16.831 5.41866 16.3447 5.52875 15.8016C5.63883 15.2584 5.55215 14.6938 5.28418 14.2087C5.01622 13.7236 4.58446 13.3497 4.06608 13.1537L6.69442 11H7.57542V13.3333C7.57542 13.5985 7.68077 13.8529 7.86831 14.0404C8.05585 14.228 8.3102 14.3333 8.57542 14.3333H15.1231L17.7514 16.4863C17.234 16.6823 16.8031 17.0558 16.5357 17.5402C16.2683 18.0247 16.182 18.5884 16.292 19.1306C16.402 19.6729 16.7013 20.1583 17.1364 20.5002C17.5714 20.8421 18.1138 21.0181 18.6667 20.9969C19.2196 20.9756 19.7469 20.7584 20.1544 20.3841C20.5619 20.0098 20.823 19.5028 20.8911 18.9537C20.9591 18.4046 20.8297 17.8492 20.5259 17.3867C20.2221 16.9243 19.7637 16.5849 19.2327 16.4293C19.237 16.4073 19.2402 16.385 19.2421 16.3627V14.3333H19.9088C20.174 14.3333 20.4283 14.228 20.6159 14.0404C20.8034 13.8529 20.9088 13.5985 20.9088 13.3333V5.33333C20.9088 5.06812 20.8034 4.81376 20.6159 4.62623C20.4283 4.43869 20.174 4.33333 19.9088 4.33333ZM4.90875 15.3333C4.90875 15.663 4.811 15.9852 4.62787 16.2593C4.44473 16.5334 4.18443 16.747 3.87989 16.8731C3.57535 16.9993 3.24023 17.0323 2.91693 16.968C2.59363 16.9037 2.29666 16.7449 2.06357 16.5118C1.83048 16.2788 1.67175 15.9818 1.60744 15.6585C1.54313 15.3352 1.57614 15.0001 1.70228 14.6955C1.82843 14.391 2.04205 14.1307 2.31613 13.9475C2.59021 13.7644 2.91245 13.6667 3.24208 13.6667C3.68395 13.6672 4.10756 13.843 4.42001 14.1554C4.73246 14.4679 4.90822 14.8915 4.90875 15.3333ZM6.57542 10.3333C6.49834 10.3334 6.42366 10.3601 6.36408 10.409L3.24208 12.9667V10.6667C3.24208 10.5783 3.20696 10.4935 3.14445 10.431C3.08194 10.3685 2.99716 10.3333 2.90875 10.3333H1.90875C1.82034 10.3333 1.73556 10.2982 1.67305 10.2357C1.61054 10.1732 1.57542 10.0884 1.57542 10V2C1.57542 1.91159 1.61054 1.82681 1.67305 1.7643C1.73556 1.70179 1.82034 1.66667 1.90875 1.66667H13.2421C13.3305 1.66667 13.4153 1.70179 13.4778 1.7643C13.5403 1.82681 13.5754 1.91159 13.5754 2V4.33333H8.57542C8.43557 4.33377 8.29739 4.36368 8.16989 4.42112C8.04238 4.47855 7.92841 4.56222 7.83542 4.66667H7.24208C7.15368 4.66667 7.06889 4.70179 7.00638 4.7643C6.94387 4.82681 6.90875 4.91159 6.90875 5C6.90875 5.08841 6.94387 5.17319 7.00638 5.2357C7.06889 5.29821 7.15368 5.33333 7.24208 5.33333H7.57542V6.33333H2.90875C2.82034 6.33333 2.73556 6.36845 2.67305 6.43096C2.61054 6.49348 2.57542 6.57826 2.57542 6.66667C2.57542 6.75507 2.61054 6.83986 2.67305 6.90237C2.73556 6.96488 2.82034 7 2.90875 7H7.57542V8H2.90875C2.82034 8 2.73556 8.03512 2.67305 8.09763C2.61054 8.16014 2.57542 8.24493 2.57542 8.33333C2.57542 8.42174 2.61054 8.50652 2.67305 8.56904C2.73556 8.63155 2.82034 8.66667 2.90875 8.66667H7.57542V10.3333H6.57542ZM20.2421 18.6667C20.2421 18.9963 20.1443 19.3185 19.9612 19.5926C19.7781 19.8667 19.5178 20.0803 19.2132 20.2065C18.9087 20.3326 18.5736 20.3656 18.2503 20.3013C17.927 20.237 17.63 20.0783 17.3969 19.8452C17.1638 19.6121 17.0051 19.3151 16.9408 18.9918C16.8765 18.6685 16.9095 18.3334 17.0356 18.0289C17.1618 17.7243 17.3754 17.464 17.6495 17.2809C17.9235 17.0977 18.2458 17 18.5754 17C19.0173 17.0005 19.4409 17.1763 19.7533 17.4887C20.0658 17.8012 20.2416 18.2248 20.2421 18.6667ZM20.2421 13.3333C20.2421 13.4217 20.207 13.5065 20.1445 13.569C20.0819 13.6315 19.9972 13.6667 19.9088 13.6667H18.9088C18.8203 13.6667 18.7356 13.7018 18.673 13.7643C18.6105 13.8268 18.5754 13.9116 18.5754 14V16.3L15.4534 13.7427C15.3939 13.6937 15.3192 13.6668 15.2421 13.6667H8.57542C8.48701 13.6667 8.40223 13.6315 8.33971 13.569C8.2772 13.5065 8.24208 13.4217 8.24208 13.3333V5.33333C8.24208 5.24493 8.2772 5.16014 8.33971 5.09763C8.40223 5.03512 8.48701 5 8.57542 5H19.9088C19.9972 5 20.0819 5.03512 20.1445 5.09763C20.207 5.16014 20.2421 5.24493 20.2421 5.33333V13.3333Z" stroke="#E43625" stroke-width="0.4" mask="url(#path-1-outside-1_334_104)"/>
<path d="M9.57552 6.99967H16.2422C16.3306 6.99967 16.4154 6.96456 16.4779 6.90204C16.5404 6.83953 16.5755 6.75475 16.5755 6.66634C16.5755 6.57794 16.5404 6.49315 16.4779 6.43064C16.4154 6.36813 16.3306 6.33301 16.2422 6.33301H9.57552C9.48712 6.33301 9.40233 6.36813 9.33982 6.43064C9.27731 6.49315 9.24219 6.57794 9.24219 6.66634C9.24219 6.75475 9.27731 6.83953 9.33982 6.90204C9.40233 6.96456 9.48712 6.99967 9.57552 6.99967Z" fill="#E43625"/>
<path d="M18.9095 8H13.9095C13.8211 8 13.7363 8.03512 13.6738 8.09763C13.6113 8.16014 13.5762 8.24493 13.5762 8.33333C13.5762 8.42174 13.6113 8.50652 13.6738 8.56904C13.7363 8.63155 13.8211 8.66667 13.9095 8.66667H18.9095C18.9979 8.66667 19.0827 8.63155 19.1452 8.56904C19.2077 8.50652 19.2428 8.42174 19.2428 8.33333C19.2428 8.24493 19.2077 8.16014 19.1452 8.09763C19.0827 8.03512 18.9979 8 18.9095 8Z" fill="#E43625"/>
<path d="M9.57552 8.66667H12.2422C12.3306 8.66667 12.4154 8.63155 12.4779 8.56904C12.5404 8.50652 12.5755 8.42174 12.5755 8.33333C12.5755 8.24493 12.5404 8.16014 12.4779 8.09763C12.4154 8.03512 12.3306 8 12.2422 8H9.57552C9.48712 8 9.40233 8.03512 9.33982 8.09763C9.27731 8.16014 9.24219 8.24493 9.24219 8.33333C9.24219 8.42174 9.27731 8.50652 9.33982 8.56904C9.40233 8.63155 9.48712 8.66667 9.57552 8.66667Z" fill="#E43625"/>
<path d="M18.9089 9.66699H9.57552C9.48712 9.66699 9.40233 9.70211 9.33982 9.76462C9.27731 9.82714 9.24219 9.91192 9.24219 10.0003C9.24219 10.0887 9.27731 10.1735 9.33982 10.236C9.40233 10.2985 9.48712 10.3337 9.57552 10.3337H18.9089C18.9973 10.3337 19.082 10.2985 19.1446 10.236C19.2071 10.1735 19.2422 10.0887 19.2422 10.0003C19.2422 9.91192 19.2071 9.82714 19.1446 9.76462C19.082 9.70211 18.9973 9.66699 18.9089 9.66699Z" fill="#E43625"/>
<path d="M14.5755 11.333H9.57552C9.48712 11.333 9.40233 11.3681 9.33982 11.4306C9.27731 11.4932 9.24219 11.5779 9.24219 11.6663C9.24219 11.7547 9.27731 11.8395 9.33982 11.902C9.40233 11.9646 9.48712 11.9997 9.57552 11.9997H14.5755C14.6639 11.9997 14.7487 11.9646 14.8112 11.902C14.8737 11.8395 14.9089 11.7547 14.9089 11.6663C14.9089 11.5779 14.8737 11.4932 14.8112 11.4306C14.7487 11.3681 14.6639 11.333 14.5755 11.333Z" fill="#E43625"/>
<path d="M18.9095 6.33301H17.9095C17.8211 6.33301 17.7363 6.36813 17.6738 6.43064C17.6113 6.49315 17.5762 6.57794 17.5762 6.66634C17.5762 6.75475 17.6113 6.83953 17.6738 6.90204C17.7363 6.96456 17.8211 6.99967 17.9095 6.99967H18.9095C18.9979 6.99967 19.0827 6.96456 19.1452 6.90204C19.2077 6.83953 19.2428 6.75475 19.2428 6.66634C19.2428 6.57794 19.2077 6.49315 19.1452 6.43064C19.0827 6.36813 18.9979 6.33301 18.9095 6.33301Z" fill="#E43625"/>
<path d="M2.90951 3.66667H9.57617C9.66458 3.66667 9.74936 3.63155 9.81188 3.56904C9.87439 3.50652 9.90951 3.42174 9.90951 3.33333C9.90951 3.24493 9.87439 3.16014 9.81188 3.09763C9.74936 3.03512 9.66458 3 9.57617 3H2.90951C2.8211 3 2.73632 3.03512 2.6738 3.09763C2.61129 3.16014 2.57617 3.24493 2.57617 3.33333C2.57617 3.42174 2.61129 3.50652 2.6738 3.56904C2.73632 3.63155 2.8211 3.66667 2.90951 3.66667Z" fill="#E43625"/>
<path d="M2.90951 5.33366H5.57617C5.66458 5.33366 5.74936 5.29854 5.81187 5.23603C5.87439 5.17352 5.90951 5.08873 5.90951 5.00033C5.90951 4.91192 5.87439 4.82714 5.81187 4.76462C5.74936 4.70211 5.66458 4.66699 5.57617 4.66699H2.90951C2.8211 4.66699 2.73632 4.70211 2.6738 4.76462C2.61129 4.82714 2.57617 4.91192 2.57617 5.00033C2.57617 5.08873 2.61129 5.17352 2.6738 5.23603C2.73632 5.29854 2.8211 5.33366 2.90951 5.33366Z" fill="#E43625"/>
<path d="M11.2425 3.66667H12.2425C12.3309 3.66667 12.4157 3.63155 12.4782 3.56904C12.5407 3.50652 12.5758 3.42174 12.5758 3.33333C12.5758 3.24493 12.5407 3.16014 12.4782 3.09763C12.4157 3.03512 12.3309 3 12.2425 3H11.2425C11.1541 3 11.0693 3.03512 11.0068 3.09763C10.9443 3.16014 10.9092 3.24493 10.9092 3.33333C10.9092 3.42174 10.9443 3.50652 11.0068 3.56904C11.0693 3.63155 11.1541 3.66667 11.2425 3.66667Z" fill="#E43625"/>
</svg>
