<svg width="50" height="44" viewBox="0 0 50 44" fill="none" xmlns="http://www.w3.org/2000/svg">
<path d="M25.919 10.0142C25.8192 10.3487 26.0098 10.7003 26.3441 10.8L26.4102 10.8197L26.413 10.8164C26.7267 10.8732 27.0377 10.6855 27.1299 10.3744C27.9694 7.55353 30.6143 5.5829 33.561 5.5829C33.9099 5.5829 34.1929 5.29995 34.1929 4.95109C34.1929 4.60222 33.9099 4.31928 33.561 4.31928C29.9395 4.31928 26.8962 6.7305 25.919 10.0142ZM25.919 10.0142L26.022 10.0449M25.919 10.0142C25.919 10.0142 25.919 10.0142 25.919 10.0143L26.022 10.0449M26.022 10.0449C25.9392 10.3224 26.0973 10.6142 26.3748 10.697L26.022 10.0449Z" fill="#E43625" stroke="#F9FFF9" stroke-width="0.214966"/>
<path d="M40.9011 30.6418H37.7552C37.4657 30.6418 37.2308 30.4069 37.2308 30.1174C37.2308 29.8279 37.4656 29.5931 37.7552 29.5931H40.9011C45.2375 29.5931 48.7659 26.0647 48.7659 21.7283C48.7659 17.3918 45.2375 13.8634 40.9011 13.8634H40.8254C40.6734 13.8634 40.5288 13.7975 40.4292 13.6825C40.3295 13.5676 40.2846 13.4151 40.3063 13.2646C40.3531 12.938 40.3767 12.6099 40.3767 12.2905C40.3767 8.5322 37.3188 5.47422 33.5605 5.47422C32.0984 5.47422 30.7041 5.93113 29.528 6.79588C29.2696 6.98576 28.9026 6.9015 28.7532 6.61723C25.4226 0.275199 16.7235 -0.576471 12.2135 4.94055C10.3136 7.26478 9.56714 10.2882 10.1653 13.235C10.2312 13.5605 9.98217 13.8638 9.65147 13.8638H9.44137C5.10488 13.8638 1.57653 17.3922 1.57653 21.7287C1.57653 26.0652 5.10488 29.5935 9.44137 29.5935H12.5873C12.8768 29.5935 13.1116 29.8283 13.1116 30.1178C13.1116 30.4073 12.8768 30.6422 12.5873 30.6422H9.44137C4.52655 30.6422 0.527832 26.6434 0.527832 21.7286C0.527832 16.9517 4.30517 13.0402 9.02977 12.8245C8.58597 9.76727 9.43463 6.6835 11.4016 4.27691C16.2302 -1.63033 25.4839 -0.968203 29.3956 5.61879C30.6436 4.83642 32.0716 4.426 33.5603 4.426C38.1137 4.426 41.7218 8.30151 41.4061 12.8294C46.0872 13.0919 49.8144 16.9827 49.8144 21.7282C49.8144 26.6434 45.8156 30.6418 40.9008 30.6418L40.9011 30.6418Z" fill="#E43625"/>
<path d="M11.8837 29.8226C11.8837 37.1099 17.8122 43.0383 25.0994 43.0383C32.3867 43.0383 38.3151 37.1098 38.3151 29.8226C38.3151 22.5353 32.3867 16.6069 25.0994 16.6069C17.8121 16.6069 11.8837 22.5354 11.8837 29.8226ZM13.1476 29.8226C13.1476 23.2325 18.5093 17.8707 25.0994 17.8707C31.6895 17.8707 37.0513 23.2324 37.0513 29.8226C37.0513 36.4126 31.6895 41.7744 25.0994 41.7744C18.5094 41.7744 13.1476 36.4127 13.1476 29.8226Z" fill="#E43625" stroke="#F9FFF9" stroke-width="0.214966"/>
<path d="M24.8515 35.0973C24.8515 35.3686 25.0715 35.5887 25.3428 35.5887C25.6141 35.5887 25.8342 35.369 25.8342 35.0973V25.1168C25.8342 24.8455 25.6142 24.6254 25.3428 24.6254C25.0715 24.6254 24.8515 24.8455 24.8515 25.1168V35.0973Z" fill="#E43625" stroke="#483EA8" stroke-width="0.214966"/>
<path d="M25.3406 25.8117L22.6172 28.5351L25.3406 25.8117ZM25.3406 25.8117L28.064 28.5352C28.1598 28.631 28.286 28.6791 28.4114 28.6791L25.3406 25.8117ZM21.9222 28.5352C22.1141 28.7271 22.4254 28.7272 22.6171 28.5352L25.0691 24.8454L24.9931 24.7694L24.993 24.7695L21.9222 27.8403C21.7303 28.0322 21.7303 28.3432 21.9222 28.5352ZM28.4115 28.6791C28.5367 28.6791 28.663 28.6314 28.759 28.5351L28.4115 28.6791Z" fill="#E43625" stroke="#483EA8" stroke-width="0.214966"/>
</svg>
